<svg width="24" height="24" viewBox="0 0 24 24" fill="none" xmlns="http://www.w3.org/2000/svg">
<path fill-rule="evenodd" clip-rule="evenodd" d="M16.5463 12.9999C17.2963 12.9999 17.9563 12.5899 18.2963 11.9699L21.8763 5.47994C22.2463 4.81994 21.7663 3.99994 21.0063 3.99994H6.20628L5.26628 1.99994H1.99628V3.99994H3.99628L7.59628 11.5899L6.24628 14.0299C5.51628 15.3699 6.47628 16.9999 7.99628 16.9999H19.9963V14.9999H7.99628L9.09628 12.9999H16.5463ZM6.00628 19.9999C6.00628 18.8999 6.89628 17.9999 7.99628 17.9999C9.09628 17.9999 9.99628 18.8999 9.99628 19.9999C9.99628 21.0999 9.09628 21.9999 7.99628 21.9999C6.89628 21.9999 6.00628 21.0999 6.00628 19.9999ZM16.0063 19.9999C16.0063 18.8999 16.8963 17.9999 17.9963 17.9999C19.0963 17.9999 19.9963 18.8999 19.9963 19.9999C19.9963 21.0999 19.0963 21.9999 17.9963 21.9999C16.8963 21.9999 16.0063 21.0999 16.0063 19.9999ZM19.3063 5.99994H7.15628L9.52628 10.9999H16.5463L19.3063 5.99994Z" fill="white"/>
</svg>
